<svg width="17" height="16" viewBox="0 0 17 16" fill="none" xmlns="http://www.w3.org/2000/svg">
<circle cx="8.65234" cy="8" r="8" fill="#039B52"/>
<path d="M7.56172 12.8998C6.75675 12.8998 6.04522 12.7416 5.42712 12.4254C4.80902 12.102 4.33107 11.6456 3.99327 11.0562C3.65547 10.4669 3.48657 9.77331 3.48657 8.97553C3.48657 8.17775 3.65547 7.48418 3.99327 6.89483C4.33107 6.29829 4.80902 5.8419 5.42712 5.52567C6.04522 5.20224 6.75675 5.04053 7.56172 5.04053C8.60387 5.04053 9.47352 5.27771 10.1707 5.75206V7.3045C9.85444 7.03858 9.49149 6.84811 9.08182 6.73312C8.67933 6.61094 8.21935 6.54984 7.70187 6.54984C6.91847 6.54984 6.29677 6.76905 5.83679 7.20748C5.384 7.63871 5.1576 8.22806 5.1576 8.97553C5.1576 9.73019 5.38759 10.3267 5.84757 10.7652C6.30755 11.1964 6.92565 11.412 7.70187 11.412C8.23373 11.412 8.70449 11.3509 9.11416 11.2287C9.52383 11.0994 9.90475 10.8945 10.2569 10.6142V12.1667C9.5957 12.6554 8.6973 12.8998 7.56172 12.8998Z" fill="white"/>
<path d="M13.2013 3.63068C13.2302 3.56086 13.2446 3.52595 13.238 3.51042C13.2323 3.49703 13.2198 3.48778 13.2053 3.48623C13.1885 3.48442 13.1594 3.50843 13.101 3.55645L12.8647 3.75096C12.7798 3.82081 12.7374 3.85573 12.6892 3.87409C12.6467 3.89032 12.6011 3.89712 12.5556 3.89403C12.5042 3.89053 12.4534 3.86952 12.3519 3.8275L12.069 3.71048C11.9992 3.6816 11.9643 3.66715 11.9487 3.67378C11.9354 3.67949 11.9261 3.69199 11.9245 3.70646C11.9227 3.72325 11.9468 3.75242 11.9948 3.81077L12.1893 4.04712C12.2591 4.132 12.2941 4.17444 12.3124 4.22257C12.3286 4.26514 12.3354 4.31073 12.3323 4.35618C12.3288 4.40757 12.3078 4.45836 12.2658 4.55993L12.1488 4.84279C12.1199 4.91261 12.1055 4.94752 12.1121 4.96305C12.1178 4.97644 12.1303 4.98569 12.1448 4.98724C12.1616 4.98905 12.1907 4.96504 12.2491 4.91702L12.4854 4.72251C12.5703 4.65266 12.6128 4.61774 12.6609 4.59938C12.7035 4.58315 12.749 4.57634 12.7945 4.57944C12.8459 4.58294 12.8967 4.60395 12.9983 4.64597L13.2811 4.76299C13.3509 4.79187 13.3858 4.80631 13.4014 4.79969C13.4148 4.79398 13.424 4.78148 13.4256 4.76701C13.4274 4.75022 13.4034 4.72105 13.3553 4.6627L13.1608 4.42635C13.091 4.34147 13.0561 4.29903 13.0377 4.2509C13.0215 4.20833 13.0147 4.16274 13.0178 4.11729C13.0213 4.0659 13.0423 4.01511 13.0843 3.91354L13.2013 3.63068Z" fill="white"/>
<path d="M13.2013 3.63068C13.2302 3.56086 13.2446 3.52595 13.238 3.51042C13.2323 3.49703 13.2198 3.48778 13.2053 3.48623C13.1885 3.48442 13.1594 3.50843 13.101 3.55645L12.8647 3.75096C12.7798 3.82081 12.7374 3.85573 12.6892 3.87409C12.6467 3.89032 12.6011 3.89712 12.5556 3.89403C12.5042 3.89053 12.4534 3.86952 12.3519 3.8275L12.069 3.71048C11.9992 3.6816 11.9643 3.66715 11.9487 3.67378C11.9354 3.67949 11.9261 3.69199 11.9245 3.70646C11.9227 3.72325 11.9468 3.75242 11.9948 3.81077L12.1893 4.04712C12.2591 4.132 12.2941 4.17444 12.3124 4.22257C12.3286 4.26514 12.3354 4.31073 12.3323 4.35618C12.3288 4.40757 12.3078 4.45836 12.2658 4.55993L12.1488 4.84279C12.1199 4.91261 12.1055 4.94752 12.1121 4.96305C12.1178 4.97644 12.1303 4.98569 12.1448 4.98724C12.1616 4.98905 12.1907 4.96504 12.2491 4.91702L12.4854 4.72251C12.5703 4.65266 12.6128 4.61774 12.6609 4.59938C12.7035 4.58315 12.749 4.57634 12.7945 4.57944C12.8459 4.58294 12.8967 4.60395 12.9983 4.64597L13.2811 4.76299C13.3509 4.79187 13.3858 4.80631 13.4014 4.79969C13.4148 4.79398 13.424 4.78148 13.4256 4.76701C13.4274 4.75022 13.4034 4.72105 13.3553 4.6627L13.1608 4.42635C13.091 4.34147 13.0561 4.29903 13.0377 4.2509C13.0215 4.20833 13.0147 4.16274 13.0178 4.11729C13.0213 4.0659 13.0423 4.01511 13.0843 3.91354L13.2013 3.63068Z" fill="white"/>
<path d="M10.3063 2.04915C10.3284 1.97688 10.3394 1.94075 10.3313 1.92592C10.3244 1.91314 10.3111 1.90513 10.2965 1.90497C10.2796 1.90478 10.2529 1.93146 10.1994 1.98484L9.78333 2.4C9.66662 2.51647 9.60826 2.5747 9.53903 2.609C9.47779 2.63935 9.4107 2.65605 9.34238 2.65794C9.26514 2.66008 9.1863 2.636 9.02861 2.58782L8.4665 2.41608C8.39423 2.394 8.3581 2.38296 8.34328 2.39104C8.3305 2.398 8.32248 2.41133 8.32232 2.42588C8.32213 2.44277 8.34882 2.46951 8.40219 2.523L8.81735 2.93906C8.93382 3.05577 8.99205 3.11413 9.02636 3.18336C9.0567 3.2446 9.0734 3.31169 9.07529 3.38001C9.07744 3.45725 9.05335 3.53609 9.00517 3.69378L8.83343 4.25589C8.81135 4.32816 8.80031 4.36429 8.80839 4.37912C8.81536 4.39189 8.82868 4.39991 8.84324 4.40007C8.86012 4.40026 8.88686 4.37357 8.94035 4.3202L9.35641 3.90504C9.47313 3.78857 9.53148 3.73034 9.60072 3.69603C9.66195 3.66569 9.72904 3.64899 9.79736 3.64709C9.8746 3.64495 9.95344 3.66904 10.1111 3.71722L10.6732 3.88896C10.7455 3.91104 10.7816 3.92208 10.7965 3.914C10.8092 3.90703 10.8173 3.89371 10.8174 3.87915C10.8176 3.86227 10.7909 3.83553 10.7376 3.78204L10.3224 3.36598C10.2059 3.24926 10.1477 3.1909 10.1134 3.12167C10.083 3.06044 10.0663 2.99334 10.0644 2.92503C10.0623 2.84779 10.0864 2.76895 10.1346 2.61126L10.3063 2.04915Z" fill="white"/>
<path d="M10.3063 2.04915C10.3284 1.97688 10.3394 1.94075 10.3313 1.92592C10.3244 1.91314 10.3111 1.90513 10.2965 1.90497C10.2796 1.90478 10.2529 1.93146 10.1994 1.98484L9.78333 2.4C9.66662 2.51647 9.60826 2.5747 9.53903 2.609C9.47779 2.63935 9.4107 2.65605 9.34238 2.65794C9.26514 2.66008 9.1863 2.636 9.02861 2.58782L8.4665 2.41608C8.39423 2.394 8.3581 2.38296 8.34328 2.39104C8.3305 2.398 8.32248 2.41133 8.32232 2.42588C8.32213 2.44277 8.34882 2.46951 8.40219 2.523L8.81735 2.93906C8.93382 3.05577 8.99205 3.11413 9.02636 3.18336C9.0567 3.2446 9.0734 3.31169 9.07529 3.38001C9.07744 3.45725 9.05335 3.53609 9.00517 3.69378L8.83343 4.25589C8.81135 4.32816 8.80031 4.36429 8.80839 4.37912C8.81536 4.39189 8.82868 4.39991 8.84324 4.40007C8.86012 4.40026 8.88686 4.37357 8.94035 4.3202L9.35641 3.90504C9.47313 3.78857 9.53148 3.73034 9.60072 3.69603C9.66195 3.66569 9.72904 3.64899 9.79736 3.64709C9.8746 3.64495 9.95344 3.66904 10.1111 3.71722L10.6732 3.88896C10.7455 3.91104 10.7816 3.92208 10.7965 3.914C10.8092 3.90703 10.8173 3.89371 10.8174 3.87915C10.8176 3.86227 10.7909 3.83553 10.7376 3.78204L10.3224 3.36598C10.2059 3.24926 10.1477 3.1909 10.1134 3.12167C10.083 3.06044 10.0663 2.99334 10.0644 2.92503C10.0623 2.84779 10.0864 2.76895 10.1346 2.61126L10.3063 2.04915Z" fill="white"/>
<path d="M14.0088 5.81766C14.0353 5.7469 14.0485 5.71151 14.0414 5.69622C14.0352 5.68303 14.0224 5.67421 14.0079 5.67315C13.9911 5.67192 13.9627 5.6969 13.906 5.74687L13.3092 6.27304C13.1551 6.4089 13.078 6.47684 12.9893 6.51418C12.9108 6.5472 12.8261 6.56281 12.741 6.55991C12.6447 6.55663 12.5485 6.52061 12.3561 6.44856L11.611 6.16953C11.5402 6.14303 11.5048 6.12979 11.4895 6.13693C11.4764 6.1431 11.4675 6.1559 11.4665 6.17042C11.4653 6.18726 11.4902 6.2156 11.5402 6.27228L12.0664 6.86913C12.2022 7.02325 12.2702 7.1003 12.3075 7.18904C12.3405 7.26754 12.3561 7.35226 12.3532 7.43737C12.35 7.53359 12.3139 7.6298 12.2419 7.8222L11.9629 8.56734C11.9364 8.6381 11.9231 8.67348 11.9303 8.68878C11.9364 8.70197 11.9492 8.71079 11.9637 8.71185C11.9806 8.71308 12.0089 8.6881 12.0656 8.63813L12.6625 8.11196C12.8166 7.97609 12.8936 7.90816 12.9824 7.87082C13.0609 7.83779 13.1456 7.82219 13.2307 7.82509C13.3269 7.82837 13.4231 7.86439 13.6155 7.93644L14.3607 8.21547C14.4314 8.24196 14.4668 8.25521 14.4821 8.24806C14.4953 8.2419 14.5041 8.2291 14.5052 8.21458C14.5064 8.19774 14.4814 8.1694 14.4315 8.11272L13.9053 7.51587C13.7694 7.36175 13.7015 7.28469 13.6642 7.19595C13.6311 7.11746 13.6155 7.03273 13.6184 6.94762C13.6217 6.8514 13.6577 6.7552 13.7298 6.5628L14.0088 5.81766Z" fill="white"/>
<path d="M14.0088 5.81766C14.0353 5.7469 14.0485 5.71151 14.0414 5.69622C14.0352 5.68303 14.0224 5.67421 14.0079 5.67315C13.9911 5.67192 13.9627 5.6969 13.906 5.74687L13.3092 6.27304C13.1551 6.4089 13.078 6.47684 12.9893 6.51418C12.9108 6.5472 12.8261 6.56281 12.741 6.55991C12.6447 6.55663 12.5485 6.52061 12.3561 6.44856L11.611 6.16953C11.5402 6.14303 11.5048 6.12979 11.4895 6.13693C11.4764 6.1431 11.4675 6.1559 11.4665 6.17042C11.4653 6.18726 11.4902 6.2156 11.5402 6.27228L12.0664 6.86913C12.2022 7.02325 12.2702 7.1003 12.3075 7.18904C12.3405 7.26754 12.3561 7.35226 12.3532 7.43737C12.35 7.53359 12.3139 7.6298 12.2419 7.8222L11.9629 8.56734C11.9364 8.6381 11.9231 8.67348 11.9303 8.68878C11.9364 8.70197 11.9492 8.71079 11.9637 8.71185C11.9806 8.71308 12.0089 8.6881 12.0656 8.63813L12.6625 8.11196C12.8166 7.97609 12.8936 7.90816 12.9824 7.87082C13.0609 7.83779 13.1456 7.82219 13.2307 7.82509C13.3269 7.82837 13.4231 7.86439 13.6155 7.93644L14.3607 8.21547C14.4314 8.24196 14.4668 8.25521 14.4821 8.24806C14.4953 8.2419 14.5041 8.2291 14.5052 8.21458C14.5064 8.19774 14.4814 8.1694 14.4315 8.11272L13.9053 7.51587C13.7694 7.36175 13.7015 7.28469 13.6642 7.19595C13.6311 7.11746 13.6155 7.03273 13.6184 6.94762C13.6217 6.8514 13.6577 6.7552 13.7298 6.5628L14.0088 5.81766Z" fill="white"/>
</svg>
